<?xml version="1.0" encoding="UTF-8"?>
<svg version="1.1" xmlns="http://www.w3.org/2000/svg" width="1920" height="1280">
<path d="M0 0 C92.20526935 -0.02614367 184.41053984 -0.04511218 1274.93157708 0.3855015 C1302.7679482 0.41376431 1330.60431961 0.44152171 1358.4406929 0.46757126 C1359.74612004 0.4687933 1361.05154718 0.47001534 1362.39653271 0.47127441 C1368.96836691 0.47742356 1375.54020112 0.48356302 1382.11203533 0.48970072 C1430.24046302 0.53466997 1478.36888573 0.58300701 1526.49730444 0.63677824 C1531.31168333 0.64214995 1536.12606223 0.64751545 1540.94044113 0.65287781 C1542.12229977 0.65419656 1543.30415841 0.65551531 1544.52183095 0.65687402 C1561.81327504 0.67611774 1579.10472023 0.69325533 1596.39616776 0.70909119 C1615.87923302 0.7269376 1635.36229232 0.74793398 1654.8453501 0.77267468 C1663.59262783 0.78371968 1672.33990352 0.79474001 1681.0871861 0.80115515 C1758.06199435 0.85845618 1835.02437702 1.47635631 1912 2 C1912 361.7 1912 721.4 1912 1092 C1892.36845962 1090.84520351 1892.36845962 1090.84520351 1884.87890625 1090.08642578 C1883.99644667 1089.9993571 1883.11398708 1089.91228842 1882.2047863 1089.82258129 C1879.32343727 1089.53564925 1876.44288322 1089.24177809 1873.5625 1088.9453125 C1872.54370884 1088.84048239 1871.52491768 1088.73565228 1870.47525406 1088.62764549 C1862.64757653 1087.81711362 1854.82326241 1086.97700381 1847 1086.125 C1845.84708214 1085.99997982 1844.69416428 1085.87495964 1843.50630951 1085.74615097 C1794.98490058 1080.45954567 1747.38534372 1071.86418969 1699.67626953 1061.66723633 C1698.58674232 1061.43437518 1698.58674232 1061.43437518 1697.47520447 1061.19680977 C1694.3027327 1060.51375562 1691.14546849 1059.79757609 1688 1059 C1688.55463774 1051.19789387 1689.99751145 1043.74501085 1691.71435547 1036.12304688 C1691.99351775 1034.8619299 1692.27268003 1033.60081293 1692.56030178 1032.30148029 C1693.32776123 1028.83509547 1694.10236895 1025.37034291 1694.87821412 1021.90582681 C1695.71086505 1018.18155139 1696.53670168 1014.45576486 1697.36332703 1010.73014832 C1698.78558365 1004.32418852 1700.21193108 997.91915128 1701.6411438 991.51473999 C1703.69389308 982.31600184 1705.7402008 973.11584061 1707.78455079 963.91523254 C1708.7271123 959.67324271 1709.66990061 955.4313033 1710.61274719 951.18937683 C1710.80041474 950.34504367 1710.98808228 949.5007105 1711.18143672 948.63079149 C1712.51975149 942.61023067 1713.85927141 936.58993874 1715.1993866 930.56977844 C1720.2137798 908.04319676 1725.21440145 885.51361376 1730.19921875 862.98046875 C1730.35870656 862.25954812 1730.51819437 861.53862748 1730.68251514 860.79586077 C1732.38390386 853.10504526 1734.08481509 845.41412423 1735.78546143 837.72314453 C1738.35254069 826.11390542 1740.92190659 814.50517235 1743.49103737 802.8963871 C1744.67586387 797.54252288 1745.86052334 792.1886217 1747.04516602 786.8347168 C1747.24586637 785.9276725 1747.44656673 785.0206282 1747.65334892 784.08609772 C1748.10223511 782.05739903 1748.551118 780.02869961 1749 778 C1750.88384903 778.22803566 1750.88384903 778.22803566 1752.80575562 778.4606781 C1753.86542069 778.58894816 1753.86542069 778.58894816 1754.94649315 778.71980953 C1759.9317952 779.4000284 1764.76749091 780.78255776 1769.625 782.0625 C1770.73101563 782.32482422 1771.83703125 782.58714844 1772.9765625 782.85742188 C1779.59498768 784.61941848 1783.33680483 786.37883869 1787.12255859 792.19311523 C1788 794 1788 794 1788 796 C1788.66281982 796.1036084 1789.32563965 796.2072168 1790.00854492 796.31396484 C1793.77576375 797.17790714 1797.27853207 798.56040333 1800.86328125 799.9765625 C1802.4052801 800.5711401 1803.94760849 801.16486364 1805.49023438 801.7578125 C1807.90275497 802.68896941 1810.31277964 803.6251106 1812.7175293 804.57617188 C1815.05181963 805.49677751 1817.39391046 806.39449357 1819.73828125 807.2890625 C1820.80119133 807.71863754 1820.80119133 807.71863754 1821.88557434 808.15689087 C1827.88172574 810.41091585 1832.56962767 810.24513515 1838.6796875 808.02734375 C1839.40414063 807.66769531 1840.12859375 807.30804687 1840.875 806.9375 C1844.83274021 805 1844.83274021 805 1847 805 C1847.18175781 804.41992188 1847.36351562 803.83984375 1847.55078125 803.2421875 C1848.73278159 799.56889412 1849.85669935 796.25589402 1851.75 792.875 C1854.48335087 786.588293 1851.11166826 778.7780608 1848.85449219 772.63867188 C1845.54464171 765.39535511 1838.76963008 760.38786822 1832.90380859 755.23925781 C1823.33705672 746.74948488 1823.33705672 746.74948488 1822.46166992 742.20581055 C1822.70115261 739.6220187 1823.19397738 737.46058926 1824 735 C1824.36085601 733.43903132 1824.71602151 731.87672279 1825.0625 730.3125 C1825.23910156 729.64863281 1825.41570312 728.98476563 1825.59765625 728.30078125 C1827.51280162 717.34912473 1823.8395887 705.25851387 1818 696 C1808.50447324 685.42781509 1795.93752658 681.56564519 1782.22770691 680.80307007 C1774.4789186 680.49973724 1766.74474312 680.64347476 1759 681 C1757.76625789 676.13999222 1757.78556312 671.32544264 1757.70288086 666.34350586 C1757.68322769 665.37291733 1757.66357452 664.4023288 1757.64332581 663.40232849 C1757.57923586 660.17323744 1757.52183924 656.94406729 1757.46484375 653.71484375 C1757.42168784 651.42517116 1757.37827152 649.13550346 1757.33460999 646.84584045 C1757.24345482 642.00949982 1757.15562406 637.17311275 1757.07006836 632.33666992 C1756.98408314 627.48794828 1756.89409473 622.63933396 1756.79956055 617.79077148 C1756.49958743 602.39481389 1756.25189818 586.99889372 1756.05007172 571.60134125 C1755.99923965 567.94531268 1755.94027144 564.28948519 1755.87969971 560.63360596 C1755.78255007 554.64243723 1755.71315896 548.65150338 1755.66324043 542.65976143 C1755.64067565 540.42139742 1755.6095045 538.18310055 1755.56895256 535.94499016 C1755.20312097 515.08197501 1755.20312097 515.08197501 1760.01695251 505.51451111 C1761.19020108 502.51348969 1760.97339434 501.03303974 1760 498 C1758.70583011 495.9826186 1758.70583011 495.9826186 1757.0625 494.25 C1756.27552734 493.36054687 1756.27552734 493.36054687 1755.47265625 492.453125 C1751.4139626 488.44826018 1744.79026598 489.35469722 1739.4375 489 C1738.12861816 488.91169922 1736.81973633 488.82339844 1735.47119141 488.73242188 C1721.54296607 487.84056338 1707.59695042 487.56984778 1693.64329529 487.40380859 C1686.22967967 487.24342169 1678.9460754 486.83683646 1671.57815552 485.99090576 C1661.65278063 484.93487326 1651.85521837 484.72292937 1641.88232422 484.80175781 C1640.06754082 484.80921629 1638.25275639 484.81642722 1636.43797112 484.82341385 C1615.056716 484.93579904 1593.68303235 485.50465938 1572.31023908 486.08021474 C1566.40601487 486.23811243 1560.50163221 486.38989048 1554.59727478 486.54270935 C1542.02270936 486.86945911 1529.44838482 487.20487059 1516.87410355 487.54235458 C1509.09106893 487.75117412 1501.30797423 487.95769602 1493.52487183 488.16397095 C1408.97328911 490.39629319 1408.97328911 490.39629319 1324.43483734 493.07173157 C1321.14729545 493.18458907 1317.85969588 493.29561879 1314.57208252 493.40637207 C1292.66227253 494.15020149 1270.76363476 495.09072258 1248.8711834 496.23989296 C1246.54339235 496.36135211 1244.21544894 496.47993452 1241.88734627 496.59526634 C1230.84675016 497.14766159 1219.82475256 497.81549829 1208.85571289 499.22338867 C1208.05763183 499.30998654 1207.25955076 499.39658442 1206.43728542 499.48580647 C1200.78631068 500.30127394 1196.56043146 502.40936833 1193 507 C1192.09954991 510.28175108 1192.1037622 513.23608457 1192.25 516.625 C1192.26071533 517.57358887 1192.27143066 518.52217773 1192.2824707 519.49951172 C1192.50265315 526.42160182 1193.78564684 532.81140698 1195.36547852 539.53662109 C1197.85684578 550.41221246 1199.20499282 558.10061205 1193.3125 568 C1191.85738036 570.27785694 1190.35254588 572.45150506 1188.70800781 574.59692383 C1186.8849976 577.04057018 1186.8849976 577.04057018 1185.39355469 580.12768555 C1182.72006863 585.0652015 1180.84060662 588.32370458 1175.43188477 590.31103516 C1171.19929699 591.17420214 1166.92814507 591.51127985 1162.625 591.8125 C1148.01112848 592.98138477 1148.01112848 592.98138477 1136 601 C1133.52475522 604.00296696 1131.41846771 607.16915171 1129.3125 610.4375 C1124.45465599 617.51127341 1120.30755525 621.84884391 1112.48364258 625.34521484 C1104.89284998 628.75486583 1099.03631063 634.32946243 1093.60473633 640.61450195 C1088.04218481 646.77656806 1080.91999299 650.23684644 1073.6875 654.0625 C1072.40625816 654.74945335 1071.1256543 655.43759796 1069.84570312 656.12695312 C1069.21986328 656.46379623 1068.59402344 656.80063934 1067.94921875 657.14768982 C1066.09856259 658.14701101 1064.25122565 659.15225741 1062.40429688 660.15844727 C1060.31610509 661.28805359 1058.21555356 662.39558627 1056.09570312 663.46459961 C1049.20076911 667.14463383 1045.92041495 671.70111053 1042.125 678.4375 C1041.58359375 679.35337891 1041.0421875 680.26925781 1040.484375 681.21289062 C1038.96436482 683.79505426 1037.47682312 686.3929551 1036 689 C1035.20601396 690.38688183 1034.41178385 691.77362399 1033.6171875 693.16015625 C1033.08351563 694.09730469 1032.54984375 695.03445313 1032 696 C1031.410979 695.98952637 1030.82195801 695.97905273 1030.21508789 695.96826172 C1027.49760354 695.92620446 1024.78018804 695.9005182 1022.0625 695.875 C1021.13630859 695.85824219 1020.21011719 695.84148438 1019.25585938 695.82421875 C1013.18127038 695.78159006 1007.88164921 696.46775498 1002 698 C1001.67 702.62 1001.34 707.24 1001 712 C1008.78122359 714.5937412 1017.10690245 715.10955859 1024.8359375 711.77734375 C1027.16446497 710.43243253 1027.16446497 710.43243253 1029.16796875 708.9609375 C1031 708 1031 708 1033.06640625 708.16015625 C1036.36958521 709.59487035 1037.83759401 712.17685885 1040 715 C1039.30040161 716.20765015 1039.30040161 716.20765015 1038.58666992 717.43969727 C1036.70609955 721.65947842 1036.13759006 725.41017631 1035.61328125 729.96484375 C1035.50654587 730.83403946 1035.39981049 731.70323517 1035.2898407 732.59877014 C1035.06675653 734.44302383 1034.84941669 736.28798028 1034.63745117 738.13354492 C1034.3200694 740.87218477 1033.97693845 743.60665577 1033.63085938 746.34179688 C1032.13899386 758.63402873 1031.69988216 770.72715605 1031.943573 783.10250854 C1031.99979822 785.98963875 1032.0331662 788.87642261 1032.06469727 791.76391602 C1032.44961938 818.38270662 1035.23613928 840.81345156 1047.3425293 864.70385742 C1048.88354027 867.7684014 1050.27446962 870.86078567 1051.63671875 874.0078125 C1053.63061975 878.42898278 1055.84266142 881.82866547 1058.9375 885.5625 C1059.90068233 886.74402376 1060.86286988 887.92635896 1061.82421875 889.109375 C1062.33388184 889.73005859 1062.84354492 890.35074219 1063.36865234 890.99023438 C1066.39200424 894.71490257 1069.31362479 898.5191738 1072.25 902.3125 C1073.93627451 904.48331132 1075.62317583 906.65348707 1077.31738281 908.81811523 C1078.46765229 910.30969363 1079.59640376 911.81804952 1080.70605469 913.34008789 C1084.54132054 918.52245573 1088.38792955 922.25496026 1093.75 925.8125 C1094.48460449 926.31402588 1095.21920898 926.81555176 1095.97607422 927.33227539 C1098.30436946 928.90880209 1100.64864536 930.45811212 1103 932 C1103.74862305 932.4940332 1104.49724609 932.98806641 1105.26855469 933.49707031 C1118.14046085 941.94269086 1131.45098148 949.69232099 1145 957 C1145.95608154 957.51933105 1146.91216309 958.03866211 1147.8972168 958.57373047 C1151.15181128 960.06978374 1154.08383686 960.84105036 1157.59375 961.53515625 C1158.86089844 961.7863623 1160.12804688 962.03756836 1161.43359375 962.29638672 C1162.78883129 962.55298198 1164.14430598 962.8083275 1165.5 963.0625 C1166.53278076 963.25951508 1166.53278076 963.25951508 1167.58642578 963.46051025 C1179.67308802 965.75356961 1191.70557525 967.39120855 1204 968 C1205.95099609 968.10634766 1205.95099609 968.10634766 1207.94140625 968.21484375 C1220.87770341 968.56371908 1233.61493567 966.06852935 1246.32739258 963.94677734 C1247.39387527 963.76883636 1248.46035797 963.59089539 1249.55915833 963.40756226 C1250.36463608 963.27306671 1251.17011383 963.13857117 1252 963 C1252.20996109 963.58421219 1252.41992218 964.16842438 1252.63624573 964.77033997 C1254.85856334 970.9534195 1257.08195038 977.13611376 1259.3059082 983.31860352 C1260.13136761 985.61375595 1260.9565709 987.90900051 1261.78149414 990.2043457 C1262.97992628 993.53882831 1264.17928958 996.87297463 1265.37890625 1000.20703125 C1265.77026764 1001.29605743 1266.16162903 1002.38508362 1266.56484985 1003.5071106 C1268.40064709 1008.60529177 1270.25177508 1013.69638713 1272.15185547 1018.77099609 C1272.4807225 1019.65115891 1272.80958954 1020.53132172 1273.14842224 1021.43815613 C1273.75830881 1023.06491243 1274.37235771 1024.69011677 1274.99134827 1026.31343079 C1276.12865785 1029.34649225 1277 1031.73188929 1277 1035 C1259.15591188 1035.75030865 1241.38298048 1036.10901824 1223.52236938 1035.95386505 C1216.48221727 1035.89531581 1209.44191861 1035.86387764 1202.40161133 1035.83007812 C1201.64379152 1035.82630614 1200.8859717 1035.82253415 1200.10518765 1035.81864786 C1121.50663348 1035.43140875 1042.89954829 1036.1749913 964.3125 1037.5 C963.62633152 1037.51153056 962.94016303 1037.52306111 962.23320156 1037.53494108 C874.61410749 1039.01082968 787.44739604 1042.96391267 655.20904541 1054.01922607 C654.25498389 1054.10354409 653.30092237 1054.18786211 652.31794989 1054.27473521 C651.36697908 1054.3587821 650.41600827 1054.44282899 649.43622017 1054.52942276 C647.52397127 1054.69836605 645.61171886 1054.86726953 643.69946289 1055.03613281 C642.75765978 1055.11931495 641.81585666 1055.20249709 640.84551406 1055.2881999 C626.65927681 1056.53797044 612.46766052 1057.69095531 598.26733398 1058.76855469 C597.33230053 1058.83952559 596.39726708 1058.91049649 595.43389928 1058.98361802 C590.72569802 1059.34052213 586.01739697 1059.69609534 581.30906868 1060.05131912 C537.30078896 1063.37468997 493.3735425 1067.36327193 449.45232332 1071.67989743 C442.84944951 1072.32770966 436.24547203 1072.96334013 429.64086914 1073.59326172 C376.27954216 1078.42708447 376.27954216 1078.42708447 323.31421566 1086.31696606 C314.07960627 1088.00784933 304.8246868 1089.57215156 295.56762695 1091.13427734 C293.84915108 1091.42450171 292.13067929 1091.71475026 290.41221142 1092.00502205 C289.11011426 1092.22496191 289.11011426 1092.22496191 287.78171211 1092.44934499 C286.90248445 1092.59785771 286.02325679 1092.74637044 285.11738586 1092.89938354 C284.22624083 1093.04986102 283.33509579 1093.20033849 282.41694635 1093.35537589 C272.27201065 1095.06932009 262.13007966 1096.80080801 251.98828125 1098.53320312 C250.09531912 1098.85649102 248.20235603 1099.17977324 246.30939198 1099.50304985 C243.45032245 1099.99132148 240.59125462 1100.47960299 237.73219651 1100.9679414 C231.0432211 1102.1103263 224.35396401 1103.25105095 217.66455078 1104.39086914 C193.10654176 1108.57553143 168.55014005 1112.76938283 144 1117 C142.9830418 1117.17523949 142.9830418 1117.17523949 141.945539 1117.35401917 C134.63590415 1118.61411135 127.32761819 1119.88149518 120.02225876 1121.16615486 C118.2313548 1121.48068042 116.44016565 1121.79358828 114.64863968 1122.10455132 C100.61166763 1124.5451424 86.6772539 1127.47462885 73.0234375 1131.58984375 C72.23834808 1131.82452866 71.45325867 1132.05921356 70.64437866 1132.30101013 C62.10062163 1134.90034641 53.63408715 1137.73818083 45.1640625 1140.56640625 C44.41916502 1140.81507698 43.67426754 1141.06374771 42.90679741 1141.31995392 C35.31192113 1143.8579547 27.72310225 1146.41253213 20.14957809 1149.01361561 C17.29000353 1149.99449232 14.4279053 1150.96787076 11.56548691 1151.94041252 C10.21551285 1152.40161435 8.86687313 1152.86674205 7.51965714 1153.33593941 C5.65818102 1153.98420672 3.7919558 1154.61878878 1.92553711 1155.25268555 C0.34753578 1155.79701485 0.34753578 1155.79701485 -1.26234436 1156.3523407 C-4.01940816 1157.00459147 -5.38236954 1156.97853855 -8 1156 C-7.34 1156 -6.68 1156 -6 1156 C-6.0009758 1155.30744828 -6.00195161 1154.61489655 -6.00295698 1153.90135841 C-6.13226727 1060.272411 -6.01718858 966.64629166 -5.55688477 873.01831055 C-5.55113919 871.84804554 -5.54539361 870.67778053 -5.53947393 869.47205295 C-5.38802421 838.67145145 -5.22765102 807.87089823 -5.06404496 777.07035918 C-4.96701688 758.79561577 -4.87192063 740.52086307 -4.77802849 722.24610329 C-4.77117362 720.91235554 -4.76431846 719.5786078 -4.75746301 718.24486005 C-4.72989108 712.8803726 -4.70232647 707.51588512 -4.67477251 702.15139757 C-4.59792659 687.19151815 -4.52077042 672.23164034 -4.44336605 657.2717638 C-4.43809308 656.25264855 -4.43809308 656.25264855 -4.43271359 655.21294512 C-4.32173778 633.76889055 -4.20939089 612.32484341 -4.09605503 590.8808012 C-4.09241149 590.19137438 -4.08876796 589.50194755 -4.08501401 588.791629 C-4.02591639 577.60997482 -3.9667493 566.42832101 -3.90757635 555.24666723 C-3.67109421 510.55875454 -3.43933486 465.87081979 -3.21166992 421.18286133 C-3.15377062 409.81859415 -3.09586192 398.45432703 -3.03788853 387.09006023 C-3.03431719 386.38994464 -3.03074585 385.68982905 -3.02706628 384.96849783 C-2.91701099 363.39623042 -2.80583102 341.82396905 -2.69342709 320.25171375 C-2.68990095 319.57497917 -2.68637482 318.89824459 -2.68274183 318.20100289 C-2.60188549 302.68567367 -2.52068711 287.17034626 -2.43925327 271.65502006 C-2.41142562 266.35162058 -2.383605 261.04822107 -2.35578728 255.74482155 C-2.34893895 254.43969881 -2.34209062 253.13457608 -2.33503476 251.78990417 C-2.23207822 232.15924332 -2.13134235 212.52857189 -2.03170967 192.89789391 C-1.91893761 170.68081177 -1.80293716 148.46374912 -1.68265242 126.24670633 C-1.61557689 113.84093874 -1.55097969 101.43516417 -1.48998794 89.02936514 C-1.44899766 80.74323104 -1.40469996 72.45711883 -1.35773406 64.17101646 C-1.33110134 59.45622112 -1.30586644 54.74143024 -1.28465731 50.02660712 C-1.2652972 45.72955297 -1.24168271 41.43254291 -1.21483697 37.1355292 C-1.20596269 35.60061996 -1.19856417 34.06570119 -1.19292653 32.53077665 C-1.15181056 21.65952667 -0.68594485 10.84946431 0 0 Z " fill="#000000" transform="translate(8,0)"/>
<path d="M0 0 C2.88074689 1.06274745 5.47532008 2.26465353 8.1640625 3.76171875 C16.00038001 8.12210761 21.0725129 9.59656997 30 8 C31.89495947 7.93879 33.79167153 7.91622843 35.6875 7.9375 C36.93080078 7.95103516 36.93080078 7.95103516 38.19921875 7.96484375 C38.79347656 7.97644531 39.38773438 7.98804688 40 8 C40.10957031 8.95519531 40.21914062 9.91039062 40.33203125 10.89453125 C41.30489241 18.82769989 42.61224924 26.34327923 45 34 C47.72761511 34.67363372 50.456799 35.33909444 53.1875 36 C53.95642578 36.19078125 54.72535156 36.3815625 55.51757812 36.578125 C61.22450912 38.13514209 61.22450912 38.13514209 67 38 C69.66008264 35.73494326 72.0015842 33.38541977 74.36328125 30.82226562 C75.8671875 29.30859375 75.8671875 29.30859375 79 27 C82.33203125 26.9921875 82.33203125 26.9921875 86 28 C86.67482422 28.17635986 87.34964844 28.35271973 88.04492188 28.53442383 C101.94025527 32.40522187 112.21219213 39.62379034 123 49 C125.24215439 47.9211391 127.13939103 46.89340686 129.125 45.375 C131 44 131 44 133 44 C133.05945801 44.86423584 133.11891602 45.72847168 133.18017578 46.61889648 C135.8825568 84.86281353 140.2390419 122.82714023 147.4597168 160.49438477 C147.62873001 161.37725159 147.79774323 162.26011841 147.97187805 163.16973877 C148.28811824 164.81042655 148.60839176 166.4503443 148.93351746 168.08929443 C149.59487843 171.48666597 150 174.5220286 150 178 C146.02215014 178.81903545 142.04250868 179.62902594 138.0625 180.4375 C136.38704102 180.78264648 136.38704102 180.78264648 134.67773438 181.13476562 C105.853688 186.9671973 76.93291448 181.18603232 52.26953125 164.8828125 C51.54072754 164.38813477 50.81192383 163.89345703 50.06103516 163.38378906 C48.19789003 162.13286433 46.3122685 160.95622583 44.38671875 159.8046875 C37.30082149 155.44549292 32.81837067 150.71576015 28 144 C26.88482626 142.54042933 25.76600972 141.0836382 24.64453125 139.62890625 C17.63265533 130.45744723 11.62329234 121.60737535 7 111 C6.13329651 109.06618925 5.26606307 107.13261597 4.3984375 105.19921875 C2.59873874 101.14768017 0.80172942 97.09514283 -0.9609375 93.02734375 C-1.33009277 92.17906006 -1.69924805 91.33077637 -2.07958984 90.45678711 C-4.55820467 83.84079214 -4.56347255 76.7289913 -5.0625 69.75 C-5.15337891 68.57953125 -5.24425781 67.4090625 -5.33789062 66.203125 C-6.43830457 50.97935311 -6.17522829 36.54262155 -3.91870117 21.4465332 C-3.55518092 19.01351384 -3.20892848 16.57847071 -2.86523438 14.14257812 C-2.64158513 12.58579926 -2.41701264 11.02915269 -2.19140625 9.47265625 C-2.08719864 8.74885269 -1.98299103 8.02504913 -1.87562561 7.27931213 C-1.11777864 2.23555728 -1.11777864 2.23555728 0 0 Z " fill="#000000" transform="translate(1096,733)"/>
</svg>
